<svg width="38" height="38" viewBox="0 0 38 38" fill="none" xmlns="http://www.w3.org/2000/svg">
<path d="M10.2917 27.7084V22.9584M18.2084 27.7084V13.4584M26.125 27.7084V21.375" stroke="#FEFEFE" stroke-width="2.375" stroke-linecap="round"/>
<path d="M34.0417 8.70837C34.0417 11.3317 31.9151 13.4584 29.2917 13.4584C26.6683 13.4584 24.5417 11.3317 24.5417 8.70837C24.5417 6.08503 26.6683 3.95837 29.2917 3.95837C31.9151 3.95837 34.0417 6.08503 34.0417 8.70837Z" stroke="#FEFEFE" stroke-width="2.375"/>
<path d="M34.0345 17.4167C34.0345 17.4167 34.0416 17.9542 34.0416 19C34.0416 26.0908 34.0416 29.6361 31.8389 31.839C29.636 34.0417 26.0906 34.0417 19 34.0417C11.9093 34.0417 8.36392 34.0417 6.16111 31.839C3.95831 29.6361 3.95831 26.0908 3.95831 19C3.95831 11.9094 3.95831 8.36403 6.16111 6.16122C8.36392 3.95842 11.9093 3.95842 19 3.95842L20.5833 3.95837" stroke="#FEFEFE" stroke-width="2.375" stroke-linecap="round" stroke-linejoin="round"/>
</svg>
