<svg width="38" height="38" viewBox="0 0 38 38" fill="none" xmlns="http://www.w3.org/2000/svg">
<path d="M8.70833 15.8333C8.90174 15.8333 9.08154 15.7438 9.44113 15.5648L12.3315 14.1259C13.6105 13.4891 14.25 13.1708 14.25 12.6666V6.33329M8.70833 15.8333C8.51493 15.8333 8.33512 15.7438 7.97553 15.5648L5.08516 14.1259C3.80617 13.4891 3.16667 13.1708 3.16667 12.6666V6.33329M8.70833 15.8333V9.49996M14.25 6.33329C14.25 5.82914 13.6105 5.51078 12.3315 4.87406L9.44113 3.43514C9.08154 3.25613 8.90174 3.16663 8.70833 3.16663C8.51493 3.16663 8.33512 3.25613 7.97553 3.43514L5.08516 4.87406C3.80616 5.51078 3.16667 5.82914 3.16667 6.33329M14.25 6.33329C14.25 6.83744 13.6105 7.1558 12.3315 7.79252L9.44113 9.23144C9.08154 9.41045 8.90174 9.49996 8.70833 9.49996M3.16667 6.33329C3.16667 6.83744 3.80616 7.1558 5.08516 7.79252L7.97553 9.23144C8.33512 9.41045 8.51493 9.49996 8.70833 9.49996" stroke="#FEFEFE" stroke-width="2" stroke-linejoin="round"/>
<path d="M29.2917 15.8333C29.4851 15.8333 29.6649 15.7438 30.0244 15.5648L32.9148 14.1259C34.1938 13.4891 34.8333 13.1708 34.8333 12.6666V6.33329M29.2917 15.8333C29.0982 15.8333 28.9185 15.7438 28.5589 15.5648L25.6685 14.1259C24.3895 13.4891 23.75 13.1708 23.75 12.6666V6.33329M29.2917 15.8333V9.49996M34.8333 6.33329C34.8333 5.82914 34.1938 5.51078 32.9148 4.87406L30.0244 3.43514C29.6649 3.25613 29.4851 3.16663 29.2917 3.16663C29.0982 3.16663 28.9185 3.25613 28.5589 3.43514L25.6685 4.87406C24.3895 5.51078 23.75 5.82914 23.75 6.33329M34.8333 6.33329C34.8333 6.83744 34.1938 7.1558 32.9148 7.79252L30.0244 9.23144C29.6649 9.41045 29.4851 9.49996 29.2917 9.49996M23.75 6.33329C23.75 6.83744 24.3895 7.1558 25.6685 7.79252L28.5589 9.23144C28.9185 9.41045 29.0982 9.49996 29.2917 9.49996" stroke="#FEFEFE" stroke-width="2" stroke-linejoin="round"/>
<path d="M18.2083 9.5H19.7917" stroke="#FEFEFE" stroke-width="2" stroke-linecap="round"/>
<path d="M3.16667 19V24.5417C3.16667 26.7655 3.16667 27.8773 3.70034 28.6759C3.93138 29.0217 4.22826 29.3186 4.57403 29.5496C5.37274 30.0833 6.4846 30.0833 8.70833 30.0833" stroke="#FEFEFE" stroke-width="2" stroke-linecap="round"/>
<path d="M34.8333 19V24.5417C34.8333 26.7655 34.8333 27.8773 34.2996 28.6759C34.0686 29.0217 33.7717 29.3186 33.4259 29.5496C32.6273 30.0833 31.5155 30.0833 29.2917 30.0833" stroke="#FEFEFE" stroke-width="2" stroke-linecap="round"/>
<path d="M19 34.8333C19.1935 34.8333 19.3732 34.7438 19.7328 34.5648L22.6231 33.1258C23.9022 32.4892 24.5417 32.1708 24.5417 31.6666V25.3333M19 34.8333C18.8065 34.8333 18.6268 34.7438 18.2672 34.5648L15.3768 33.1258C14.0978 32.4892 13.4583 32.1708 13.4583 31.6666V25.3333M19 34.8333V28.5M24.5417 25.3333C24.5417 24.8292 23.9022 24.5108 22.6231 23.8741L19.7328 22.4352C19.3732 22.2561 19.1935 22.1666 19 22.1666C18.8065 22.1666 18.6268 22.2561 18.2672 22.4352L15.3768 23.8741C14.0978 24.5108 13.4583 24.8292 13.4583 25.3333M24.5417 25.3333C24.5417 25.8374 23.9022 26.1558 22.6231 26.7925L19.7328 28.2314C19.3732 28.4105 19.1935 28.5 19 28.5M13.4583 25.3333C13.4583 25.8374 14.0978 26.1558 15.3768 26.7925L18.2672 28.2314C18.6268 28.4105 18.8065 28.5 19 28.5" stroke="#FEFEFE" stroke-width="2" stroke-linejoin="round"/>
</svg>
