<svg width="1218" height="528" viewBox="0 0 1218 528" fill="none" xmlns="http://www.w3.org/2000/svg">
<g filter="url(#filter0_f_159_471)">
<circle cx="623.5" cy="623.5" r="223.5" transform="rotate(-180 623.5 623.5)" fill="#1AA4B7"/>
</g>
<path d="M725.5 489L724.939 487.273L723.122 487.273L724.592 486.205L724.031 484.477L725.5 485.545L726.969 484.477L726.408 486.205L727.878 487.273L726.061 487.273L725.5 489Z" fill="#FEFEFE"/>
<path d="M762.5 479L761.939 477.273L760.122 477.273L761.592 476.205L761.031 474.477L762.5 475.545L763.969 474.477L763.408 476.205L764.878 477.273L763.061 477.273L762.5 479Z" fill="#FEFEFE"/>
<path d="M804.5 503L803.939 501.273L802.122 501.273L803.592 500.205L803.031 498.477L804.5 499.545L805.969 498.477L805.408 500.205L806.878 501.273L805.061 501.273L804.5 503Z" fill="#FEFEFE"/>
<path d="M746.5 458L745.939 456.273L744.122 456.273L745.592 455.205L745.031 453.477L746.5 454.545L747.969 453.477L747.408 455.205L748.878 456.273L747.061 456.273L746.5 458Z" fill="#FEFEFE"/>
<path d="M730.5 437L729.939 435.273L728.122 435.273L729.592 434.205L729.031 432.477L730.5 433.545L731.97 432.477L731.408 434.205L732.878 435.273L731.061 435.273L730.5 437Z" fill="#FEFEFE"/>
<path d="M799.5 469L798.939 467.273L797.122 467.273L798.592 466.205L798.031 464.477L799.5 465.545L800.969 464.477L800.408 466.205L801.878 467.273L800.061 467.273L799.5 469Z" fill="#FEFEFE"/>
<path opacity="0.7" d="M818.5 450L817.939 448.273L816.122 448.273L817.592 447.205L817.031 445.477L818.5 446.545L819.97 445.477L819.408 447.205L820.878 448.273L819.061 448.273L818.5 450Z" fill="#FEFEFE"/>
<path opacity="0.7" d="M774.5 429L773.939 427.273L772.122 427.273L773.592 426.205L773.031 424.477L774.5 425.545L775.97 424.477L775.408 426.205L776.878 427.273L775.061 427.273L774.5 429Z" fill="#FEFEFE"/>
<path opacity="0.4" d="M835.5 486L834.939 484.273L833.122 484.273L834.592 483.205L834.031 481.477L835.5 482.545L836.969 481.477L836.408 483.205L837.878 484.273L836.061 484.273L835.5 486Z" fill="#FEFEFE"/>
<path opacity="0.4" d="M870.5 476L869.939 474.273L868.122 474.273L869.592 473.205L869.031 471.477L870.5 472.545L871.969 471.477L871.408 473.205L872.878 474.273L871.061 474.273L870.5 476Z" fill="#FEFEFE"/>
<path opacity="0.4" d="M897.5 494L896.939 492.273L895.122 492.273L896.592 491.205L896.031 489.477L897.5 490.545L898.969 489.477L898.408 491.205L899.878 492.273L898.061 492.273L897.5 494Z" fill="#FEFEFE"/>
<path opacity="0.4" d="M849.5 504L848.939 502.273L847.122 502.273L848.592 501.205L848.031 499.477L849.5 500.545L850.969 499.477L850.408 501.205L851.878 502.273L850.061 502.273L849.5 504Z" fill="#FEFEFE"/>
<path d="M689.5 486L688.939 484.273L687.122 484.273L688.592 483.205L688.031 481.477L689.5 482.545L690.969 481.477L690.408 483.205L691.878 484.273L690.061 484.273L689.5 486Z" fill="#FEFEFE"/>
<path d="M648.5 468L647.939 466.273L646.122 466.273L647.592 465.205L647.031 463.477L648.5 464.545L649.969 463.477L649.408 465.205L650.878 466.273L649.061 466.273L648.5 468Z" fill="#FEFEFE"/>
<path d="M609.5 481L608.939 479.273L607.122 479.273L608.592 478.205L608.031 476.477L609.5 477.545L610.969 476.477L610.408 478.205L611.878 479.273L610.061 479.273L609.5 481Z" fill="#FEFEFE"/>
<path d="M599.5 453L598.939 451.273L597.122 451.273L598.592 450.205L598.031 448.477L599.5 449.545L600.969 448.477L600.408 450.205L601.878 451.273L600.061 451.273L599.5 453Z" fill="#FEFEFE"/>
<path opacity="0.6" d="M643.5 420L642.939 418.273L641.122 418.273L642.592 417.205L642.031 415.477L643.5 416.545L644.97 415.477L644.408 417.205L645.878 418.273L644.061 418.273L643.5 420Z" fill="#FEFEFE"/>
<path d="M694.5 437L693.939 435.273L692.122 435.273L693.592 434.205L693.031 432.477L694.5 433.545L695.97 432.477L695.408 434.205L696.878 435.273L695.061 435.273L694.5 437Z" fill="#FEFEFE"/>
<path opacity="0.6" d="M643.5 400L642.939 398.273L641.122 398.273L642.592 397.205L642.031 395.477L643.5 396.545L644.97 395.477L644.408 397.205L645.878 398.273L644.061 398.273L643.5 400Z" fill="#FEFEFE"/>
<path opacity="0.6" d="M677.5 395L676.939 393.273L675.122 393.273L676.592 392.205L676.031 390.477L677.5 391.545L678.97 390.477L678.408 392.205L679.878 393.273L678.061 393.273L677.5 395Z" fill="#FEFEFE"/>
<path opacity="0.6" d="M626.5 395L625.939 393.273L624.122 393.273L625.592 392.205L625.031 390.477L626.5 391.545L627.97 390.477L627.408 392.205L628.878 393.273L627.061 393.273L626.5 395Z" fill="#FEFEFE"/>
<path opacity="0.6" d="M589.5 425L588.939 423.273L587.122 423.273L588.592 422.205L588.031 420.477L589.5 421.545L590.969 420.477L590.408 422.205L591.878 423.273L590.061 423.273L589.5 425Z" fill="#FEFEFE"/>
<path opacity="0.6" d="M583.5 400L582.939 398.273L581.122 398.273L582.592 397.205L582.031 395.477L583.5 396.545L584.97 395.477L584.408 397.205L585.878 398.273L584.061 398.273L583.5 400Z" fill="#FEFEFE"/>
<path opacity="0.6" d="M552.5 420L551.939 418.273L550.122 418.273L551.592 417.205L551.031 415.477L552.5 416.545L553.97 415.477L553.408 417.205L554.878 418.273L553.061 418.273L552.5 420Z" fill="#FEFEFE"/>
<path opacity="0.6" d="M511.5 415L510.939 413.273L509.122 413.273L510.592 412.205L510.031 410.477L511.5 411.545L512.97 410.477L512.408 412.205L513.878 413.273L512.061 413.273L511.5 415Z" fill="#FEFEFE"/>
<path d="M583.5 506L582.939 504.273L581.122 504.273L582.592 503.205L582.031 501.477L583.5 502.545L584.969 501.477L584.408 503.205L585.878 504.273L584.061 504.273L583.5 506Z" fill="#FEFEFE"/>
<path d="M547.5 463L546.939 461.273L545.122 461.273L546.592 460.205L546.031 458.477L547.5 459.545L548.969 458.477L548.408 460.205L549.878 461.273L548.061 461.273L547.5 463Z" fill="#FEFEFE"/>
<path d="M503.5 448L502.939 446.273L501.122 446.273L502.592 445.205L502.031 443.477L503.5 444.545L504.969 443.477L504.408 445.205L505.878 446.273L504.061 446.273L503.5 448Z" fill="#FEFEFE"/>
<path d="M501.5 483L500.939 481.273L499.122 481.273L500.592 480.205L500.031 478.477L501.5 479.545L502.969 478.477L502.408 480.205L503.878 481.273L502.061 481.273L501.5 483Z" fill="#FEFEFE"/>
<path d="M452.5 471L451.939 469.273L450.122 469.273L451.592 468.205L451.031 466.477L452.5 467.545L453.969 466.477L453.408 468.205L454.878 469.273L453.061 469.273L452.5 471Z" fill="#FEFEFE"/>
<path d="M427.5 489L426.939 487.273L425.122 487.273L426.592 486.205L426.031 484.477L427.5 485.545L428.969 484.477L428.408 486.205L429.878 487.273L428.061 487.273L427.5 489Z" fill="#FEFEFE"/>
<path d="M457.5 501L456.939 499.273L455.122 499.273L456.592 498.205L456.031 496.477L457.5 497.545L458.969 496.477L458.408 498.205L459.878 499.273L458.061 499.273L457.5 501Z" fill="#FEFEFE"/>
<path opacity="0.5" d="M323.5 509L322.939 507.273L321.122 507.273L322.592 506.205L322.031 504.477L323.5 505.545L324.969 504.477L324.408 506.205L325.878 507.273L324.061 507.273L323.5 509Z" fill="#FEFEFE"/>
<path opacity="0.5" d="M383.5 473L382.939 471.273L381.122 471.273L382.592 470.205L382.031 468.477L383.5 469.545L384.969 468.477L384.408 470.205L385.878 471.273L384.061 471.273L383.5 473Z" fill="#FEFEFE"/>
<path opacity="0.5" d="M297.5 478L296.939 476.273L295.122 476.273L296.592 475.205L296.031 473.477L297.5 474.545L298.969 473.477L298.408 475.205L299.878 476.273L298.061 476.273L297.5 478Z" fill="#FEFEFE"/>
<path opacity="0.5" d="M357.5 442L356.939 440.273L355.122 440.273L356.592 439.205L356.031 437.477L357.5 438.545L358.969 437.477L358.408 439.205L359.878 440.273L358.061 440.273L357.5 442Z" fill="#FEFEFE"/>
<path opacity="0.5" d="M337.5 462L336.939 460.273L335.122 460.273L336.592 459.205L336.031 457.477L337.5 458.545L338.969 457.477L338.408 459.205L339.878 460.273L338.061 460.273L337.5 462Z" fill="#FEFEFE"/>
<path opacity="0.5" d="M397.5 426L396.939 424.273L395.122 424.273L396.592 423.205L396.031 421.477L397.5 422.545L398.969 421.477L398.408 423.205L399.878 424.273L398.061 424.273L397.5 426Z" fill="#FEFEFE"/>
<path d="M684.5 504L683.939 502.273L682.122 502.273L683.592 501.205L683.031 499.477L684.5 500.545L685.969 499.477L685.408 501.205L686.878 502.273L685.061 502.273L684.5 504Z" fill="#FEFEFE"/>
<defs>
<filter id="filter0_f_159_471" x="3.05176e-05" y="0" width="1247" height="1247" filterUnits="userSpaceOnUse" color-interpolation-filters="sRGB">
<feFlood flood-opacity="0" result="BackgroundImageFix"/>
<feBlend mode="normal" in="SourceGraphic" in2="BackgroundImageFix" result="shape"/>
<feGaussianBlur stdDeviation="200" result="effect1_foregroundBlur_159_471"/>
</filter>
</defs>
</svg>
