<svg width="115" height="42" viewBox="0 0 115 42" fill="none" xmlns="http://www.w3.org/2000/svg">
<path d="M28.6534 0C30.3999 0.465453 31.6906 1.69194 33.1297 2.66135C35.0806 3.97503 36.9813 5.36346 38.9241 6.68961C39.7591 7.25585 40.1486 7.93534 40.144 8.99648C40.1037 18.1266 40.1014 27.2571 40.1372 36.388C40.1452 38.5488 39.3559 39.5306 36.9047 39.6722C32.8236 39.9043 28.746 40.1761 24.666 40.423C21.8562 40.594 19.0463 40.7435 16.2377 40.9157C14.7791 41.004 13.3216 41.1195 11.863 41.2237H8.77907C7.8653 40.9338 7.2348 40.3109 6.67626 39.5691C5.86987 38.4967 4.99608 37.474 4.2091 36.388C2.83046 34.4831 1.06347 32.8421 0.212524 30.5772V3.62396C0.704815 2.23213 1.78306 1.75196 3.18226 1.67268C5.4918 1.54018 7.80362 1.35899 10.1154 1.19591C14.1908 0.902593 18.2662 0.614941 22.337 0.298977C23.493 0.20951 24.6557 0.197053 25.7979 0H28.6534ZM37.2303 22.8185C37.2303 20.2342 37.2303 17.6491 37.2303 15.0632C37.2303 13.5729 37.2417 12.0825 37.212 10.5922C37.1949 9.77337 36.7734 9.40078 35.9887 9.44495C33.3685 9.59217 30.7482 9.74317 28.128 9.89794C24.3702 10.1184 20.6116 10.3396 16.8522 10.5616C14.4794 10.7035 12.1071 10.8504 9.73509 11.0021C8.99152 11.0508 8.64771 11.4075 8.58146 12.1516C8.55976 12.3962 8.56547 12.642 8.56547 12.8877C8.56547 20.5886 8.56547 28.2873 8.56547 35.9837C8.56547 36.1909 8.56547 36.3993 8.57461 36.6065C8.62258 37.4502 9.04177 37.893 9.90071 37.9214C10.642 37.9463 11.3856 37.9214 12.1269 37.8829C16.3222 37.6394 20.5164 37.3789 24.7117 37.1343C27.654 36.9633 30.5998 36.8319 33.5409 36.6348C34.4113 36.576 35.2942 36.6348 36.1554 36.4423C36.7779 36.3053 37.116 35.9486 37.1914 35.3246C37.2238 35.0055 37.2368 34.6848 37.2303 34.3642C37.2318 30.5175 37.2318 26.669 37.2303 22.8185ZM9.61059 8.04746C12.112 7.9059 14.353 7.78472 16.5929 7.65222C20.9196 7.39477 25.2466 7.13505 29.5741 6.87307C30.9778 6.78813 32.3827 6.70546 33.7865 6.6092C33.9384 6.59901 34.1783 6.64431 34.2148 6.42687C34.2423 6.26606 34.0492 6.19131 33.9281 6.10524C32.6157 5.16867 31.3011 4.24117 29.9898 3.29554C29.1456 2.66232 28.0991 2.35265 27.0429 2.42352C24.3679 2.59906 21.6951 2.80404 19.0224 3.00109C15.5897 3.25251 12.1581 3.50618 8.72767 3.76212C7.3239 3.86745 5.92241 3.98069 4.51978 4.09281C4.29134 4.11093 4.03434 4.1483 3.94868 4.38952C3.84588 4.66245 4.09602 4.78929 4.26964 4.92632C5.19254 5.65451 6.13714 6.35779 7.04063 7.10863C7.8653 7.79831 8.77907 8.18789 9.61059 8.04746Z" fill="white"/>
<path d="M114.433 28.1989C113.729 28.1989 113.025 28.2057 112.321 28.1989C111.618 28.1922 111.57 28.1457 111.567 27.4606C111.567 25.441 111.567 23.4217 111.567 21.4029C111.567 21.1209 111.567 20.8366 111.556 20.5547C111.496 19.1809 110.827 18.4097 109.58 18.2738C108.184 18.1209 107.067 18.8265 106.732 20.0858C106.629 20.4883 106.579 20.9026 106.585 21.318C106.592 23.3745 106.572 25.4323 106.598 27.4877C106.604 28.0279 106.433 28.2465 105.881 28.2103C105.387 28.1791 104.891 28.1791 104.397 28.2103C103.852 28.242 103.668 28.0223 103.669 27.4843C103.683 24.1446 103.669 20.8027 103.669 17.4652C103.669 17.1255 103.676 16.7857 103.669 16.446C103.661 16.1266 103.783 15.9454 104.126 15.9477C104.754 15.9522 105.382 15.9522 106.01 15.9477C106.353 15.9477 106.483 16.1142 106.476 16.4392C106.467 16.865 106.476 17.2908 106.476 17.8831C106.915 17.2659 107.217 16.7699 107.709 16.429C110.13 14.7574 113.451 15.8729 114.305 18.6543C114.344 18.78 114.392 18.9024 114.437 19.0269L114.433 28.1989Z" fill="white"/>
<path d="M52.2103 17.4482V19.9397C52.2103 22.4508 52.2103 24.9612 52.2103 27.4708C52.2103 28.1661 52.1749 28.1978 51.4644 28.2023C50.9504 28.2023 50.4364 28.1854 49.9224 28.2023C49.4564 28.2227 49.2874 28.0381 49.2908 27.5716C49.3079 25.3258 49.2988 23.079 49.2988 20.8332C49.2988 18.1526 49.3102 15.472 49.2885 12.7926C49.2885 12.2524 49.4587 12.0723 50.0081 12.0746C51.895 12.0746 51.8905 12.0644 52.995 13.5865C55.0852 16.4652 57.1793 19.3425 59.2771 22.2183C59.4085 22.3983 59.5478 22.5716 59.694 22.763C59.9225 22.5365 59.8391 22.2998 59.8391 22.0903C59.8459 19.0518 59.8391 16.0122 59.8391 12.9738C59.8391 12.0927 59.8482 12.0859 60.7243 12.0848C61.2383 12.0848 61.7523 12.0961 62.2663 12.0848C62.6295 12.0769 62.7928 12.2422 62.7928 12.591C62.7928 12.7235 62.7928 12.8549 62.7928 12.9874C62.7928 17.7619 62.7928 22.5373 62.7928 27.3133C62.7928 28.1854 62.7665 28.1061 61.9042 28.2193C60.6295 28.3835 59.8756 27.8898 59.1629 26.8502C57.0806 23.8275 54.875 20.8887 52.714 17.9205C52.5986 17.7631 52.5255 17.5536 52.2103 17.4482Z" fill="white"/>
<path d="M90.3017 22.0631C90.3017 20.7596 90.5301 19.5048 91.1949 18.3656C92.3714 16.3622 94.7609 15.3565 97.308 15.7688C99.9053 16.1878 101.52 17.7438 102.039 20.3157C102.277 21.4832 102.277 22.6861 102.039 23.8536C101.371 27.1944 98.6809 28.7459 95.5193 28.3926C92.1189 28.0132 90.3017 25.7494 90.3017 22.0631ZM93.3171 22.002C93.2954 22.8468 93.3959 23.6271 93.7226 24.3666C94.2126 25.4787 95.1104 25.9985 96.2971 25.9849C97.4839 25.9713 98.3348 25.4119 98.7826 24.3202C99.3713 22.9092 99.3897 21.3276 98.834 19.9035C98.4159 18.771 97.4713 18.1662 96.2868 18.1515C95.0795 18.1357 94.1955 18.7042 93.702 19.8367C93.4095 20.5201 93.2779 21.2606 93.3171 22.002Z" fill="white"/>
<path d="M76.4227 22.1005C76.4604 23.7913 76.1292 25.4006 74.923 26.6542C73.0407 28.6123 70.6969 28.8479 68.2366 28.0495C65.8756 27.2805 64.9082 25.3915 64.6146 23.0835C64.4805 22.0149 64.5526 20.9307 64.8271 19.8888C65.4324 17.5422 67.244 15.9794 69.6735 15.7416C70.5079 15.6465 71.3525 15.6924 72.1715 15.8775C74.6398 16.4732 76.2834 18.5184 76.4239 21.2002C76.4376 21.4969 76.4227 21.7993 76.4227 22.1005ZM73.453 22.1005C73.4233 21.6871 73.4108 21.2715 73.3582 20.8616C73.3212 20.6001 73.2569 20.3432 73.1663 20.0949C72.7323 18.8491 71.7888 18.1572 70.521 18.1526C69.2531 18.1481 68.2857 18.8208 67.8608 20.0722C67.4167 21.37 67.4167 22.7767 67.8608 24.0744C68.2754 25.327 69.2497 26.0065 70.5198 25.9997C71.79 25.9929 72.722 25.3088 73.164 24.0518C73.3684 23.4208 73.4671 22.7609 73.4564 22.0982L73.453 22.1005Z" fill="white"/>
<path d="M78.7962 22.1424C78.7962 20.951 78.7825 19.951 78.8031 18.9522C78.8122 18.5082 78.6386 18.3656 78.1989 18.3644C76.8374 18.3644 76.8511 18.6543 76.8591 17.027C76.8591 16.8571 76.8591 16.6872 76.8591 16.5185C76.8591 16.198 77.0018 16.0292 77.3445 16.0428C77.6677 16.0541 77.9921 16.0315 78.3142 16.0428C78.6569 16.0553 78.7962 15.9024 78.7928 15.5706C78.786 14.9115 78.8054 14.2512 78.7928 13.591C78.7837 13.1674 78.9356 12.9681 79.3913 12.9874C79.9796 13.0123 80.5701 13.0123 81.1583 12.9874C81.6152 12.9681 81.7637 13.1856 81.7568 13.5989C81.7477 14.2025 81.7808 14.8073 81.7488 15.4109C81.7226 15.916 81.9293 16.0825 82.4182 16.0496C82.8751 16.0179 83.3319 16.0587 83.7888 16.0383C84.192 16.0202 84.3908 16.1583 84.3873 16.5808C84.3679 18.7676 84.6158 18.3293 82.6992 18.369C81.7614 18.3882 81.7603 18.369 81.7603 19.2953C81.7603 20.9363 81.7523 22.5795 81.7603 24.216C81.7706 25.4855 82.3405 25.9804 83.6278 25.8773C84.3382 25.8207 84.3714 25.8502 84.3816 26.55C84.3816 26.8143 84.3816 27.0785 84.3816 27.3428C84.3736 28.0755 84.2983 28.1718 83.5821 28.2103C82.6318 28.2624 81.6815 28.2714 80.7551 27.9838C79.6289 27.644 79.0338 26.8671 78.8796 25.7324C78.7129 24.4765 78.8431 23.216 78.7962 22.1424Z" fill="white"/>
<path d="M88.7643 22.0269C88.7643 23.857 88.7494 25.6882 88.7746 27.5183C88.7814 28.037 88.6055 28.2375 88.0892 28.2091C87.576 28.1808 87.0616 28.1808 86.5484 28.2091C86.0333 28.2375 85.8471 28.0483 85.8505 27.524C85.8699 24.4108 85.8596 21.2953 85.8596 18.1832C85.8596 17.617 85.8711 17.0507 85.8596 16.4845C85.8505 16.1028 86.007 15.9318 86.3999 15.942C86.971 15.9556 87.5421 15.9658 88.1132 15.942C88.6067 15.9171 88.7837 16.1006 88.778 16.5955C88.7517 18.4029 88.7643 20.2149 88.7643 22.0269Z" fill="white"/>
<path d="M87.3262 14.0791C87.0983 14.0841 86.8717 14.043 86.6603 13.9583C86.449 13.8736 86.2572 13.747 86.0969 13.5863C85.9365 13.4256 85.8109 13.2342 85.7277 13.0237C85.6445 12.8133 85.6054 12.5882 85.6129 12.3622C85.6105 12.1361 85.6534 11.9118 85.7392 11.7022C85.825 11.4927 85.9519 11.3022 86.1126 11.1417C86.2733 10.9812 86.4645 10.854 86.6752 10.7674C86.8859 10.6809 87.1119 10.6367 87.34 10.6375C87.7907 10.6542 88.2183 10.8399 88.5363 11.1571C88.8544 11.4743 89.0391 11.8993 89.0533 12.3464C89.0566 12.5731 89.0144 12.7983 88.929 13.0086C88.8437 13.219 88.7169 13.4104 88.5561 13.5717C88.3954 13.733 88.2038 13.861 87.9927 13.9481C87.7815 14.0352 87.5549 14.0797 87.3262 14.0791Z" fill="white"/>
<path d="M28.3188 26.5002C28.4798 26.2545 28.433 26.0608 28.433 25.8796C28.433 22.8411 28.425 19.8015 28.4456 16.7642C28.4456 16.2376 28.3393 15.9318 27.742 15.9511C27.4757 15.9425 27.2106 15.9126 26.9493 15.8616C26.3656 15.7846 26.2274 15.5706 26.4318 15.0145C26.6603 14.3724 27.1731 14.0655 27.831 14.027C29.4827 13.9273 31.1366 13.8707 32.7882 13.7609C33.333 13.7246 33.4598 13.959 33.4141 14.4211C33.3559 15.0111 33.0315 15.3192 32.449 15.4403C31.3742 15.6668 31.421 15.4234 31.4267 16.6974C31.4267 21.9623 31.4164 27.2295 31.4404 32.4933C31.4404 33.0811 31.2599 33.4186 30.7105 33.5919C30.3679 33.7051 30.0389 33.8603 29.6917 33.9576C28.0424 34.422 27.0772 34.1728 26.1086 32.781C24.7151 30.7799 23.4278 28.704 22.104 26.6554C20.8819 24.7641 19.6711 22.8661 18.4547 20.9725C18.3645 20.8332 18.2628 20.7019 18.1554 20.5513C18.0035 20.7234 18.0698 20.9001 18.0698 21.0575C18.0698 24.4731 18.08 27.8886 18.0526 31.3042C18.0526 31.8625 18.2422 32.0777 18.7711 32.1457C19.2405 32.2068 19.6974 32.354 20.1646 32.4446C20.5609 32.5205 20.6077 32.7436 20.4673 33.063C20.1554 33.7708 19.5535 34.0516 18.8293 34.1015C17.1023 34.2147 15.3753 34.328 13.6471 34.4174C13.3547 34.4333 12.9276 34.602 12.8213 34.157C12.7071 33.6938 12.9218 33.2883 13.357 33.0732C13.6529 32.9428 13.9635 32.8481 14.2822 32.7912C14.6797 32.704 14.8407 32.4967 14.8396 32.08C14.8289 27.248 14.8289 22.4161 14.8396 17.5841C14.8396 17.1527 14.6797 16.9545 14.2582 16.9341C13.935 16.9182 13.6129 16.8899 13.2896 16.8718C12.8899 16.8503 12.7756 16.6261 12.819 16.2614C12.9138 15.4856 13.4553 14.9126 14.2902 14.8447C16.1474 14.694 18.0092 14.5955 19.8676 14.4573C20.2856 14.4268 20.4821 14.6533 20.6797 14.9522C23.1164 18.6517 25.5558 22.3462 27.9978 26.0359C28.088 26.182 28.1886 26.3168 28.3188 26.5002Z" fill="white"/>
</svg>
