<svg width="33" height="32" viewBox="0 0 33 32" fill="none" xmlns="http://www.w3.org/2000/svg">
<g clip-path="url(#clip0_1_283)">
<path d="M9.87344 0.112022C8.17104 0.192289 7.00851 0.464022 5.99211 0.863222C4.94038 1.27322 4.04878 1.82322 3.16171 2.71349C2.27478 3.60376 1.72838 4.49589 1.32144 5.54949C0.927575 6.56789 0.660642 7.73149 0.585442 9.43482C0.510242 11.1382 0.493575 11.6858 0.501975 16.0308C0.510242 20.3756 0.529442 20.9203 0.611975 22.6272C0.693309 24.3292 0.963975 25.4915 1.36331 26.5082C1.77398 27.56 2.32331 28.4512 3.21398 29.3386C4.10451 30.2259 4.99598 30.771 6.05198 31.1786C7.06958 31.5719 8.23344 31.84 9.93651 31.9146C11.6396 31.9892 12.1877 32.0066 16.5314 31.9982C20.8752 31.9899 21.4221 31.9706 23.1285 31.8896C24.8352 31.8087 25.9912 31.536 27.0082 31.1386C28.0601 30.7271 28.952 30.1786 29.8386 29.2878C30.7253 28.3968 31.2713 27.504 31.678 26.4499C32.0722 25.4323 32.3401 24.2686 32.414 22.5667C32.4886 20.8588 32.5062 20.3136 32.498 15.9694C32.4896 11.625 32.47 11.0803 32.389 9.37402C32.3081 7.66776 32.037 6.50909 31.638 5.49176C31.2268 4.43989 30.678 3.54936 29.7878 2.66136C28.8976 1.77336 28.004 1.22776 26.9504 0.822022C25.932 0.428022 24.7689 0.159622 23.0658 0.0860224C21.3628 0.0124224 20.8146 -0.00664428 16.4693 0.00188905C12.124 0.0101557 11.58 0.0288224 9.87344 0.112022ZM10.0604 29.0362C8.50038 28.9683 7.65331 28.7091 7.08878 28.4922C6.34131 28.2042 5.80878 27.856 5.24624 27.2988C4.68358 26.7418 4.33811 26.2074 4.04624 25.4615C3.82704 24.897 3.56304 24.0508 3.49011 22.4908C3.41078 20.8048 3.39411 20.2986 3.38478 16.0268C3.37544 11.7552 3.39184 11.2495 3.46571 9.56282C3.53238 8.00416 3.79318 7.15616 4.00971 6.59189C4.29771 5.84349 4.64464 5.31189 5.20304 4.74976C5.76144 4.18749 6.29424 3.84122 7.04078 3.54936C7.60478 3.32922 8.45078 3.06749 10.0101 2.99322C11.6974 2.91322 12.203 2.89722 16.4741 2.88789C20.7452 2.87856 21.2521 2.89456 22.9401 2.96896C24.4988 3.03669 25.3472 3.29496 25.9108 3.51296C26.6585 3.80096 27.1908 4.14682 27.7529 4.70629C28.3152 5.26549 28.6617 5.79642 28.9536 6.54456C29.174 7.10682 29.4358 7.95256 29.5094 9.51296C29.5897 11.2003 29.608 11.7063 29.6156 15.977C29.6233 20.2476 29.6082 20.7548 29.5342 22.441C29.4662 24.001 29.2076 24.8483 28.9902 25.4135C28.7022 26.1607 28.3552 26.6935 27.7964 27.2554C27.2377 27.8174 26.7056 28.1635 25.9586 28.4554C25.3954 28.6752 24.5484 28.9376 22.9904 29.0119C21.3029 29.0912 20.7973 29.1079 16.5246 29.1172C12.252 29.1266 11.7477 29.1092 10.0604 29.0362ZM23.104 7.44856C23.1046 7.82833 23.2179 8.19938 23.4294 8.51479C23.6409 8.8302 23.9412 9.07579 24.2924 9.2205C24.6435 9.36521 25.0296 9.40254 25.402 9.32777C25.7743 9.253 26.1161 9.06949 26.3842 8.80045C26.6522 8.5314 26.8344 8.18891 26.9078 7.8163C26.9812 7.44368 26.9424 7.05767 26.7964 6.70709C26.6503 6.35651 26.4036 6.05712 26.0874 5.84677C25.7712 5.63642 25.3997 5.52457 25.02 5.52536C24.5109 5.52642 24.0231 5.72961 23.6638 6.09026C23.3045 6.4509 23.1031 6.93948 23.104 7.44856ZM8.28464 16.016C8.29358 20.5536 11.9788 24.2236 16.5153 24.2151C21.0521 24.2064 24.7246 20.5216 24.7161 15.984C24.7074 11.4464 21.0214 7.77536 16.4841 7.78429C11.9468 7.79322 8.27611 11.479 8.28464 16.016ZM11.1666 16.0103C11.1646 14.9555 11.4753 13.9237 12.0596 13.0455C12.6439 12.1673 13.4755 11.4821 14.4492 11.0765C15.423 10.6709 16.4951 10.5631 17.5301 10.7669C18.565 10.9706 19.5163 11.4767 20.2637 12.221C21.0111 12.9654 21.5209 13.9147 21.7287 14.9489C21.9366 15.983 21.8331 17.0556 21.4314 18.0309C21.0297 19.0063 20.3477 19.8406 19.4719 20.4283C18.596 21.0161 17.5655 21.331 16.5106 21.3331C15.8102 21.3346 15.1164 21.198 14.4687 20.9313C13.8211 20.6646 13.2323 20.2729 12.7361 19.7786C12.2398 19.2844 11.8458 18.6972 11.5765 18.0506C11.3072 17.404 11.168 16.7107 11.1666 16.0103Z" fill="#E4405F"/>
</g>
<defs>
<clipPath id="clip0_1_283">
<rect width="32" height="32" fill="white" transform="translate(0.5)"/>
</clipPath>
</defs>
</svg>
