<svg width="375" height="563" viewBox="0 0 375 563" fill="none" xmlns="http://www.w3.org/2000/svg">
<g filter="url(#filter0_f_24_478)">
<circle cx="184.743" cy="-15.5694" r="178.431" fill="#1AA4B7"/>
</g>
<path d="M103.312 91.8083L103.76 93.1875L105.21 93.1875L104.037 94.0398L104.485 95.4189L103.312 94.5666L102.138 95.4189L102.587 94.0398L101.413 93.1875L102.863 93.1875L103.312 91.8083Z" fill="#FEFEFE"/>
<path d="M73.7727 99.7917L74.2208 101.171L75.6709 101.171L74.4978 102.023L74.9459 103.402L73.7727 102.55L72.5996 103.402L73.0477 102.023L71.8745 101.171L73.3246 101.171L73.7727 99.7917Z" fill="#FEFEFE"/>
<path d="M40.2422 80.6313L40.6903 82.0105L42.1404 82.0105L40.9672 82.8628L41.4153 84.2419L40.2422 83.3896L39.0691 84.2419L39.5172 82.8628L38.344 82.0105L39.7941 82.0105L40.2422 80.6313Z" fill="#FEFEFE"/>
<path d="M86.5462 116.557L86.9943 117.936L88.4443 117.936L87.2712 118.789L87.7193 120.168L86.5462 119.315L85.373 120.168L85.8211 118.789L84.648 117.936L86.0981 117.936L86.5462 116.557Z" fill="#FEFEFE"/>
<path d="M99.3198 133.322L99.7679 134.701L101.218 134.701L100.045 135.554L100.493 136.933L99.3198 136.08L98.1467 136.933L98.5948 135.554L97.4217 134.701L98.8717 134.701L99.3198 133.322Z" fill="#FEFEFE"/>
<path d="M44.2339 107.775L44.682 109.154L46.1321 109.154L44.9589 110.007L45.407 111.386L44.2339 110.533L43.0608 111.386L43.5089 110.007L42.3357 109.154L43.7858 109.154L44.2339 107.775Z" fill="#FEFEFE"/>
<path opacity="0.7" d="M29.0652 122.944L29.5133 124.323L30.9634 124.323L29.7902 125.175L30.2383 126.554L29.0652 125.702L27.8921 126.554L28.3402 125.175L27.167 124.323L28.6171 124.323L29.0652 122.944Z" fill="#FEFEFE"/>
<path opacity="0.7" d="M64.1926 139.709L64.6407 141.088L66.0908 141.088L64.9177 141.941L65.3658 143.32L64.1926 142.467L63.0195 143.32L63.4676 141.941L62.2945 141.088L63.7445 141.088L64.1926 139.709Z" fill="#FEFEFE"/>
<path opacity="0.4" d="M15.4934 94.2034L15.9415 95.5825L17.3916 95.5825L16.2185 96.4348L16.6666 97.8139L15.4934 96.9616L14.3203 97.8139L14.7684 96.4348L13.5952 95.5825L15.0453 95.5825L15.4934 94.2034Z" fill="#FEFEFE"/>
<path opacity="0.4" d="M4.31642 79.833L4.76452 81.2121L6.21461 81.2121L5.04147 82.0645L5.48957 83.4436L4.31642 82.5912L3.14328 83.4436L3.59138 82.0645L2.41824 81.2121L3.86832 81.2121L4.31642 79.833Z" fill="#FEFEFE"/>
<path d="M132.052 94.2034L132.5 95.5825L133.95 95.5825L132.777 96.4348L133.225 97.8139L132.052 96.9616L130.879 97.8139L131.327 96.4348L130.154 95.5825L131.604 95.5825L132.052 94.2034Z" fill="#FEFEFE"/>
<path d="M164.784 108.573L165.232 109.953L166.682 109.953L165.509 110.805L165.957 112.184L164.784 111.332L163.611 112.184L164.059 110.805L162.886 109.953L164.336 109.953L164.784 108.573Z" fill="#FEFEFE"/>
<path d="M195.92 98.1951L196.368 99.5742L197.818 99.5742L196.645 100.427L197.093 101.806L195.92 100.953L194.747 101.806L195.195 100.427L194.022 99.5742L195.472 99.5742L195.92 98.1951Z" fill="#FEFEFE"/>
<path d="M203.903 120.549L204.351 121.928L205.802 121.928L204.628 122.78L205.076 124.159L203.903 123.307L202.73 124.159L203.178 122.78L202.005 121.928L203.455 121.928L203.903 120.549Z" fill="#FEFEFE"/>
<path opacity="0.6" d="M168.776 146.894L169.224 148.273L170.674 148.273L169.501 149.126L169.949 150.505L168.776 149.653L167.603 150.505L168.051 149.126L166.878 148.273L168.328 148.273L168.776 146.894Z" fill="#FEFEFE"/>
<path d="M128.06 133.322L128.508 134.701L129.959 134.701L128.785 135.554L129.233 136.933L128.06 136.08L126.887 136.933L127.335 135.554L126.162 134.701L127.612 134.701L128.06 133.322Z" fill="#FEFEFE"/>
<path opacity="0.6" d="M168.776 162.861L169.224 164.24L170.674 164.24L169.501 165.093L169.949 166.472L168.776 165.62L167.603 166.472L168.051 165.093L166.878 164.24L168.328 164.24L168.776 162.861Z" fill="#FEFEFE"/>
<path opacity="0.6" d="M141.632 166.853L142.08 168.232L143.531 168.232L142.357 169.084L142.805 170.464L141.632 169.611L140.459 170.464L140.907 169.084L139.734 168.232L141.184 168.232L141.632 166.853Z" fill="#FEFEFE"/>
<path opacity="0.6" d="M182.348 166.853L182.796 168.232L184.246 168.232L183.073 169.084L183.521 170.464L182.348 169.611L181.175 170.464L181.623 169.084L180.45 168.232L181.9 168.232L182.348 166.853Z" fill="#FEFEFE"/>
<path opacity="0.6" d="M211.887 142.903L212.335 144.282L213.785 144.282L212.612 145.134L213.06 146.513L211.887 145.661L210.714 146.513L211.162 145.134L209.989 144.282L211.439 144.282L211.887 142.903Z" fill="#FEFEFE"/>
<path opacity="0.6" d="M216.677 162.861L217.125 164.24L218.575 164.24L217.402 165.093L217.85 166.472L216.677 165.62L215.504 166.472L215.952 165.093L214.779 164.24L216.229 164.24L216.677 162.861Z" fill="#FEFEFE"/>
<path opacity="0.6" d="M241.426 146.894L241.874 148.273L243.324 148.273L242.151 149.126L242.599 150.505L241.426 149.653L240.252 150.505L240.701 149.126L239.527 148.273L240.977 148.273L241.426 146.894Z" fill="#FEFEFE"/>
<path opacity="0.6" d="M274.158 150.886L274.606 152.265L276.056 152.265L274.883 153.117L275.331 154.497L274.158 153.644L272.985 154.497L273.433 153.117L272.26 152.265L273.71 152.265L274.158 150.886Z" fill="#FEFEFE"/>
<path d="M216.677 78.2363L217.125 79.6154L218.575 79.6154L217.402 80.4678L217.85 81.8469L216.677 80.9945L215.504 81.8469L215.952 80.4678L214.779 79.6154L216.229 79.6154L216.677 78.2363Z" fill="#FEFEFE"/>
<path d="M245.417 112.565L245.865 113.945L247.315 113.945L246.142 114.797L246.59 116.176L245.417 115.324L244.244 116.176L244.692 114.797L243.519 113.945L244.969 113.945L245.417 112.565Z" fill="#FEFEFE"/>
<path d="M280.545 124.541L280.993 125.92L282.443 125.92L281.27 126.772L281.718 128.151L280.545 127.299L279.372 128.151L279.82 126.772L278.647 125.92L280.097 125.92L280.545 124.541Z" fill="#FEFEFE"/>
<path d="M282.141 96.5984L282.589 97.9775L284.04 97.9775L282.866 98.8298L283.315 100.209L282.141 99.3566L280.968 100.209L281.416 98.8298L280.243 97.9775L281.693 97.9775L282.141 96.5984Z" fill="#FEFEFE"/>
<path d="M321.26 106.178L321.708 107.558L323.158 107.558L321.985 108.41L322.433 109.789L321.26 108.937L320.087 109.789L320.535 108.41L319.362 107.558L320.812 107.558L321.26 106.178Z" fill="#FEFEFE"/>
<path d="M341.219 91.8083L341.667 93.1875L343.117 93.1875L341.944 94.0398L342.392 95.4189L341.219 94.5666L340.046 95.4189L340.494 94.0398L339.321 93.1875L340.771 93.1875L341.219 91.8083Z" fill="#FEFEFE"/>
<path d="M317.269 82.228L317.717 83.6071L319.167 83.6071L317.994 84.4595L318.442 85.8386L317.269 84.9862L316.095 85.8386L316.544 84.4595L315.37 83.6071L316.82 83.6071L317.269 82.228Z" fill="#FEFEFE"/>
<path opacity="0.5" d="M376.346 104.582L376.794 105.961L378.244 105.961L377.071 106.813L377.519 108.192L376.346 107.34L375.173 108.192L375.621 106.813L374.448 105.961L375.898 105.961L376.346 104.582Z" fill="#FEFEFE"/>
<path opacity="0.5" d="M365.169 142.104L365.618 143.483L367.068 143.483L365.894 144.336L366.343 145.715L365.169 144.862L363.996 145.715L364.444 144.336L363.271 143.483L364.721 143.483L365.169 142.104Z" fill="#FEFEFE"/>
<path d="M136.044 79.833L136.492 81.2121L137.942 81.2121L136.769 82.0645L137.217 83.4436L136.044 82.5912L134.871 83.4436L135.319 82.0645L134.146 81.2121L135.596 81.2121L136.044 79.833Z" fill="#FEFEFE"/>
<defs>
<filter id="filter0_f_24_478" x="-393.688" y="-594" width="1156.86" height="1156.86" filterUnits="userSpaceOnUse" color-interpolation-filters="sRGB">
<feFlood flood-opacity="0" result="BackgroundImageFix"/>
<feBlend mode="normal" in="SourceGraphic" in2="BackgroundImageFix" result="shape"/>
<feGaussianBlur stdDeviation="200" result="effect1_foregroundBlur_24_478"/>
</filter>
</defs>
</svg>
