<svg width="32" height="32" viewBox="0 0 32 32" fill="none" xmlns="http://www.w3.org/2000/svg">
<g clip-path="url(#clip0_1_280)">
<path d="M0.501483 15.5187C0.501483 6.59867 7.26982 0 16.0015 0C24.7332 0 31.5002 6.6 31.5002 15.5187C31.5002 24.4373 24.7319 31.036 16.0002 31.036C14.4373 31.036 12.926 30.8227 11.5181 30.4227C11.2433 30.3463 10.9514 30.3698 10.6914 30.4893L7.60436 31.8893C7.41826 31.9748 7.21462 32.0117 7.01144 31.9967C6.80827 31.9816 6.6118 31.9152 6.43943 31.8031C6.26705 31.6911 6.12406 31.5369 6.02311 31.3543C5.92216 31.1717 5.86635 30.9662 5.86061 30.756L5.77019 27.9027C5.76319 27.7308 5.72302 27.562 5.65204 27.4063C5.58107 27.2506 5.48072 27.1111 5.35686 26.996C3.80378 25.5493 2.56747 23.7774 1.73043 21.7985C0.893387 19.8195 0.474861 17.6791 0.502775 15.52L0.501483 15.5187ZM11.2481 12.5987L6.70148 20.0653C6.2494 20.772 7.11482 21.584 7.76065 21.0653L12.6561 17.2387C12.9919 16.972 13.4311 16.972 13.7798 17.2387L17.3965 20.0387C18.4815 20.8787 20.0315 20.572 20.7548 19.3987L25.3015 11.932C25.7536 11.2253 24.8882 10.4253 24.2423 10.932L19.3469 14.7587C19.024 15.0253 18.5719 15.0253 18.2361 14.7587L14.6194 11.9587C14.3622 11.7581 14.0674 11.6149 13.7538 11.5382C13.4401 11.4616 13.1144 11.453 12.7974 11.5132C12.4804 11.5734 12.179 11.701 11.9122 11.8878C11.6455 12.0747 11.4194 12.3168 11.2481 12.5987Z" fill="#00B2FF"/>
</g>
<defs>
<clipPath id="clip0_1_280">
<rect width="31" height="32" fill="white" transform="translate(0.5)"/>
</clipPath>
</defs>
</svg>
