<svg width="182" height="36" viewBox="0 0 182 36" fill="none" xmlns="http://www.w3.org/2000/svg">
<g clip-path="url(#clip0_159_381)">
<path d="M10.711 13.1451C10.1953 12.8181 9.69156 12.492 9.18257 12.1754C7.35296 11.0323 5.52191 9.89034 3.68943 8.74947C2.73269 8.15265 1.77738 7.55583 0.823506 6.959C0.783323 6.93356 0.743139 6.90859 0.703435 6.8822C0.341307 6.64049 0.342742 6.57641 0.72544 6.33517C3.89226 4.33832 7.06036 2.34368 10.2297 0.351234C10.9502 -0.0996809 10.7885 -0.116172 11.528 0.351234C14.7089 2.35687 17.8891 4.36204 21.0687 6.36674C21.3007 6.51374 21.4762 6.52835 21.7154 6.37427C22.7946 5.67741 23.8887 5.00268 24.9736 4.31429C27.1033 2.96438 29.2345 1.6154 31.3556 0.250403C31.7244 0.0148148 32.0057 0.0086895 32.3879 0.250403C35.5184 2.24677 38.6637 4.21912 41.8047 6.19711C42.4586 6.60892 42.4634 6.61457 41.8047 7.02968C38.7475 8.96056 35.6885 10.8897 32.6276 12.8171C32.4286 12.9425 32.2123 13.0471 32.0535 13.2148C32.0707 13.3873 32.2104 13.4245 32.3109 13.4876C34.4304 14.8258 36.5512 16.1617 38.6732 17.4954C39.7882 18.1975 40.901 18.9013 42.0118 19.6068C42.0666 19.6391 42.1193 19.6746 42.1697 19.7133C42.3514 19.8631 42.3543 19.9281 42.1544 20.0737C41.9884 20.1948 41.8047 20.2919 41.6281 20.4035C39.4276 21.7926 37.2271 23.1821 35.0266 24.572C34.1416 25.1308 33.2495 25.6802 32.375 26.2551C32.0325 26.4803 31.7617 26.5189 31.3905 26.273C30.0683 25.3971 28.7188 24.5617 27.3818 23.7079C25.5233 22.5215 23.6619 21.3393 21.8135 20.1368C21.5236 19.9484 21.3241 19.9705 21.0457 20.1472C17.7928 22.2128 14.526 24.2625 11.2721 26.329C10.9851 26.5095 10.7842 26.5114 10.501 26.329C8.10911 24.7965 5.71326 23.273 3.31343 21.7586C2.49956 21.2388 1.6841 20.7208 0.867038 20.2047L0.784758 20.1533C0.331261 19.8589 0.326956 19.8056 0.773755 19.521C1.60325 18.9942 2.4361 18.4698 3.26846 17.9459C5.16122 16.7541 7.05446 15.5628 8.94817 14.372C9.45844 14.0507 9.9671 13.7273 10.4742 13.4019C10.5531 13.3519 10.6473 13.317 10.711 13.1451ZM21.3308 19.7453C21.4906 19.7533 21.6016 19.6553 21.7207 19.5799C24.9153 17.5677 28.1094 15.5543 31.303 13.5399C31.8545 13.1917 31.8483 13.1889 31.2881 12.8397C29.3632 11.6392 27.439 10.4372 25.5156 9.23384C24.2637 8.45263 23.0075 7.67896 21.7633 6.88644C21.4978 6.71776 21.2887 6.70315 21.0275 6.88644C20.6386 7.15925 20.2258 7.39908 19.8235 7.65305L11.4501 12.9335C11.3563 12.9926 11.2641 13.0543 11.1736 13.1187C11.0516 13.2059 11.064 13.3001 11.1736 13.3863C11.2375 13.433 11.3039 13.4762 11.3726 13.5159C12.7684 14.3954 14.1642 15.2749 15.5597 16.1545C17.3575 17.2894 19.1546 18.4251 20.951 19.5615C21.0706 19.6383 21.1873 19.7236 21.3318 19.7453H21.3308Z" fill="white"/>
<path d="M50.5588 17.5926C50.5588 14.1564 50.5588 10.7203 50.5588 7.28418C50.5588 6.5661 50.5588 6.56516 51.295 6.56516C54.0987 6.56516 56.9034 6.53878 59.7072 6.57788C61.5183 6.60333 63.2366 7.05236 64.7971 7.99141C66.7249 9.14956 67.9342 10.8486 68.5762 12.9571C68.9213 14.0848 69.0921 15.2572 69.0828 16.4349C69.0751 17.3923 69.1101 18.3507 69.0656 19.3058C68.9866 20.9827 68.635 22.6007 67.829 24.1C66.5953 26.3951 64.6483 27.7671 62.1177 28.3707C61.3131 28.5653 60.4878 28.6645 59.6593 28.6661C56.8395 28.6661 54.0193 28.6661 51.1989 28.6661C50.5626 28.6661 50.5598 28.6628 50.5593 28.0409C50.5583 24.5583 50.5582 21.0755 50.5588 17.5926ZM55.4717 17.5808V22.2383C55.4717 22.866 55.4664 23.4931 55.4745 24.1202C55.4798 24.4995 55.5224 24.5485 55.8754 24.5471C57.2283 24.5415 58.5854 24.6263 59.931 24.4529C61.0074 24.3115 61.9359 23.8568 62.6506 23.0285C63.6145 21.9114 63.9479 20.5647 64.0436 19.1517C64.1125 18.1349 64.0958 17.1129 64.0484 16.0947C64.0146 15.2624 63.8378 14.4418 63.5255 13.6677C62.7994 11.8852 61.4513 10.8604 59.5201 10.7021C58.3022 10.6017 57.0694 10.671 55.8429 10.6752C55.5362 10.6752 55.4965 10.7327 55.4755 11.0418C55.4669 11.1667 55.4717 11.2925 55.4717 11.4187V17.5808Z" fill="white"/>
<path d="M109.339 26.2839V26.7984C109.339 29.262 109.339 31.7257 109.339 34.1893C109.339 34.8748 109.339 34.8767 108.656 34.8772C107.556 34.8772 106.456 34.8772 105.355 34.8772C104.61 34.8772 104.608 34.8772 104.608 34.1577C104.611 30.3921 104.614 26.6261 104.619 22.8599C104.623 19.1724 104.628 15.4849 104.635 11.7971C104.635 11.5615 104.659 11.3259 104.665 11.0927C104.671 10.8336 104.812 10.7294 105.062 10.736C105.109 10.736 105.157 10.7332 105.205 10.7332C106.193 10.7332 107.181 10.7299 108.171 10.7332C108.678 10.736 108.713 10.7737 108.776 11.2487C108.871 11.979 108.969 12.7093 109.07 13.4396C109.085 13.5466 109.118 13.6512 109.146 13.7737C109.301 13.6903 109.334 13.5461 109.401 13.4312C110.597 11.3924 112.415 10.401 114.782 10.3289C115.827 10.2974 116.843 10.426 117.829 10.7855C119.394 11.3561 120.551 12.3828 121.369 13.7977C122.139 15.1316 122.491 16.5866 122.646 18.101C122.725 18.9146 122.749 19.7325 122.718 20.5492C122.67 22.0664 122.426 23.5492 121.761 24.9349C120.617 27.3275 118.733 28.7811 116.049 29.1128C114.944 29.2495 113.825 29.2 112.739 28.8645C111.443 28.465 110.405 27.7337 109.651 26.6184C109.607 26.5534 109.565 26.4865 109.522 26.4205C109.488 26.3687 109.453 26.3178 109.419 26.2669L109.339 26.2839ZM109.311 19.5875C109.311 20.234 109.299 20.7066 109.372 21.1721C109.431 21.56 109.527 21.9415 109.659 22.3114C110.419 24.4048 112.13 25.3604 114.41 24.9801C116.177 24.6852 117.178 23.5548 117.61 21.8864C117.829 21.0411 117.828 20.1798 117.809 19.3171C117.797 18.5636 117.661 17.8169 117.406 17.1063C116.488 14.5912 114.082 14.006 112.106 14.6718C110.798 15.1123 110.055 16.1004 109.63 17.3523C109.391 18.0732 109.283 18.8298 109.311 19.5875Z" fill="white"/>
<path d="M129.613 25.7967C129.52 26.5412 129.427 27.2847 129.335 28.0272C129.326 28.105 129.326 28.1842 129.314 28.2628C129.259 28.6082 129.212 28.66 128.855 28.6652C128.218 28.6746 127.58 28.669 126.941 28.669C126.463 28.669 125.985 28.6756 125.506 28.6652C125.146 28.6572 125.104 28.6073 125.083 28.2487C125.076 28.1234 125.08 27.9976 125.08 27.8718V5.55923C125.08 4.78038 125.08 4.77991 125.864 4.77991C126.963 4.77991 128.062 4.77991 129.161 4.77991C129.802 4.77991 129.81 4.78698 129.81 5.40327C129.81 7.94511 129.81 10.4869 129.81 13.0288V13.4816L129.881 13.4934C129.977 13.3369 130.07 13.1781 130.168 13.0245C131.029 11.7052 132.232 10.8628 133.784 10.5217C135.478 10.149 137.141 10.2724 138.74 10.9533C140.52 11.7104 141.68 13.0542 142.406 14.7938C142.859 15.8775 143.091 17.0187 143.16 18.1801C143.259 19.8585 143.23 21.5363 142.819 23.1845C142.558 24.2291 142.156 25.2153 141.553 26.1147C140.6 27.5353 139.292 28.489 137.616 28.914C136.104 29.2971 134.591 29.2707 133.098 28.7868C131.704 28.3345 130.659 27.4642 129.926 26.2175C129.847 26.0822 129.767 25.947 129.687 25.8132C129.686 25.8028 129.662 25.8052 129.613 25.7967ZM129.711 19.7953C129.678 20.4441 129.778 21.206 130.001 21.9453C130.511 23.6415 131.579 24.7724 133.424 24.9853C134.756 25.1394 135.993 24.8774 136.972 23.8748C137.494 23.3395 137.811 22.6968 137.983 21.9835C138.327 20.561 138.366 19.1253 138.053 17.6958C137.849 16.7581 137.431 15.9091 136.666 15.2829C134.813 13.7657 131.803 14.0993 130.499 16.3242C129.891 17.3636 129.697 18.4916 129.711 19.7953Z" fill="white"/>
<path d="M93.1214 10.3327C94.7144 10.2992 96.1778 10.5725 97.5545 11.2053C99.7985 12.2372 101.208 13.9796 101.892 16.3034C102.374 17.937 102.437 19.605 102.286 21.2913C102.184 22.4268 101.938 23.5237 101.45 24.558C100.31 26.9732 98.3371 28.3627 95.7448 28.9154C93.8697 29.3168 91.9251 29.28 90.067 28.808C86.8868 28.0121 84.9561 25.9997 84.2429 22.8603C83.9137 21.4114 83.8841 19.9414 84.0156 18.4624C84.118 17.3108 84.3744 16.2045 84.8561 15.1486C85.8492 12.9736 87.535 11.562 89.8092 10.8138C90.8751 10.4595 91.997 10.2965 93.1214 10.3327ZM97.3665 19.833C97.3598 19.1785 97.3598 18.5834 97.2393 17.9954C97.0599 17.1181 96.7427 16.2992 96.1223 15.6348C94.9689 14.4013 93.5161 14.1271 91.9231 14.5139C90.377 14.888 89.4939 15.9533 89.0902 17.4159C88.6939 18.8306 88.661 20.3203 88.9945 21.7507C89.3662 23.3527 90.2775 24.5108 91.9824 24.8948C94.2451 25.4023 96.7614 24.3987 97.2589 21.4628C97.3545 20.9007 97.3545 20.3386 97.3665 19.833Z" fill="white"/>
<path d="M154.344 29.1609C153.1 29.1693 151.929 29.0445 150.792 28.7067C147.978 27.8694 146.2 26.0393 145.453 23.2462C145.026 21.6499 144.996 20.0243 145.134 18.3874C145.211 17.4317 145.427 16.4919 145.778 15.5976C146.788 13.0495 148.667 11.4324 151.324 10.7016C153.315 10.1448 155.426 10.1592 157.408 10.7431C160.394 11.6086 162.262 13.5829 163.07 16.5249C163.486 18.0383 163.544 19.5875 163.413 21.1471C163.317 22.2831 163.078 23.38 162.611 24.4246C161.602 26.6679 159.849 28.0597 157.492 28.7524C156.445 29.0596 155.37 29.1717 154.344 29.1609ZM149.988 19.8745C149.951 20.5501 150.019 21.2274 150.19 21.8826C150.426 22.7863 150.835 23.6005 151.607 24.1692C153.014 25.2058 154.556 25.2737 156.129 24.6211C157.387 24.0986 158.054 23.0606 158.353 21.7903C158.666 20.454 158.662 19.0647 158.342 17.7301C157.927 15.9519 156.799 14.6647 154.895 14.4084C152.915 14.1421 151.108 15.0209 150.393 17.0041C150.063 17.9186 149.949 18.8633 149.988 19.8745Z" fill="white"/>
<path d="M172.235 22.9103C172.059 23.0045 171.996 23.1722 171.901 23.3117C170.778 24.9519 169.652 26.5897 168.545 28.2393C168.338 28.5474 168.109 28.6803 167.727 28.6756C166.196 28.6567 164.665 28.6695 163.134 28.6647C162.987 28.6647 162.784 28.7415 162.708 28.5625C162.648 28.4211 162.803 28.3104 162.888 28.2006C164.934 25.4546 166.982 22.71 169.032 19.9668C169.061 19.9287 169.091 19.8924 169.118 19.8538C169.485 19.3322 169.489 19.4259 169.123 18.9307C167.297 16.4552 165.469 13.9791 163.639 11.5026C163.569 11.4165 163.506 11.326 163.448 11.2317C163.377 11.1031 163.174 10.9999 163.283 10.8303C163.379 10.6837 163.574 10.736 163.729 10.7337C165.212 10.7309 166.695 10.7393 168.178 10.7266C168.538 10.7238 168.765 10.8604 168.961 11.153C169.96 12.6476 170.974 14.1327 171.985 15.6193C172.071 15.7456 172.128 15.8996 172.278 15.9802C172.442 15.911 172.497 15.7541 172.583 15.6283C173.596 14.161 174.615 12.6985 175.607 11.218C175.846 10.8614 176.116 10.7177 176.547 10.7238C177.965 10.744 179.384 10.7294 180.805 10.7342C180.973 10.7342 181.197 10.6691 181.288 10.8468C181.378 11.0244 181.181 11.1554 181.082 11.2864C179.189 13.7927 177.294 16.2975 175.397 18.8007C175.368 18.8384 175.338 18.8751 175.31 18.9133C175.004 19.3223 175 19.3242 175.293 19.7251C177.039 22.1228 178.786 24.5201 180.534 26.9172C180.869 27.3761 181.207 27.8322 181.534 28.2968C181.725 28.5719 181.688 28.6605 181.361 28.6619C179.782 28.668 178.204 28.6591 176.625 28.6685C176.334 28.6685 176.202 28.4979 176.064 28.2996C175.288 27.1867 174.511 26.0747 173.733 24.9637C173.298 24.3452 172.862 23.7267 172.425 23.1082C172.372 23.0332 172.327 22.947 172.235 22.9103Z" fill="white"/>
<path d="M21.3384 22.0019C21.4948 22.0019 21.6159 22.1136 21.7484 22.1965C22.8502 22.8875 23.9514 23.5799 25.052 24.2734C27.1313 25.5849 29.2105 26.8971 31.2895 28.2101C31.9453 28.6243 31.943 28.6247 31.2785 29.0436C28.4606 30.8196 25.6425 32.5963 22.8242 34.3736C22.4487 34.6091 22.0588 34.8297 21.701 35.0888C21.435 35.2801 21.2308 35.2448 20.9701 35.077C19.7564 34.2953 18.5304 33.5316 17.311 32.7617C15.3784 31.5435 13.4459 30.3255 11.5136 29.1077C11.3529 29.0064 11.1883 28.9084 11.0352 28.7953C10.8405 28.6507 10.8362 28.5814 11.0438 28.4447C11.6141 28.0706 12.1919 27.7083 12.7689 27.3441C14.7142 26.1171 16.6596 24.891 18.605 23.6656C19.4102 23.1583 20.2155 22.651 21.0208 22.1437C21.1169 22.0853 21.2049 22.0132 21.3384 22.0019Z" fill="white"/>
<path d="M76.0383 14.414C76.1689 14.112 76.287 13.8015 76.4325 13.5084C77.2352 11.8801 78.5985 11.0173 80.3747 10.7087C81.1511 10.574 81.9309 10.6206 82.7101 10.6183C83.0928 10.6183 83.1335 10.6625 83.1359 11.0692C83.1426 12.1529 83.1388 13.2366 83.1392 14.3179C83.1392 14.5375 83.1426 14.7575 83.1392 14.9776C83.1287 15.4242 83.0914 15.4667 82.648 15.4718C81.9304 15.4808 81.2128 15.4794 80.4953 15.4794C80.0492 15.4854 79.6051 15.5397 79.1711 15.6415C77.5629 15.9948 76.8032 16.7991 76.5324 18.4044C76.4014 19.1809 76.3679 19.9659 76.3622 20.7485C76.3445 23.1341 76.3559 25.5197 76.3555 27.9057C76.3555 28.047 76.3598 28.1884 76.3555 28.3297C76.3378 28.6845 76.2937 28.7378 75.9316 28.7467C75.4379 28.759 74.9438 28.7514 74.4487 28.7514C73.6354 28.7514 72.8222 28.7562 72.009 28.7514C71.5937 28.7477 71.5445 28.6911 71.5258 28.2888C71.5215 28.1945 71.5258 28.1003 71.5258 28.006C71.5258 22.5125 71.5258 17.019 71.5258 11.5257C71.5258 10.7384 71.5258 10.7375 72.317 10.7365C73.1618 10.7365 74.0066 10.7332 74.8524 10.7365C75.3906 10.7393 75.4174 10.7648 75.4939 11.2699C75.6534 12.3222 75.8128 13.3745 75.9723 14.4268L76.0383 14.414Z" fill="white"/>
</g>
<defs>
<clipPath id="clip0_159_381">
<rect width="181.212" height="35.2119" fill="white" transform="translate(0.436462 0.00592041)"/>
</clipPath>
</defs>
</svg>
