<svg class="responsive-svg" viewBox="0 0 1247 629" fill="none" xmlns="http://www.w3.org/2000/svg">
<g filter="url(#filter0_f_159_364)">
<circle cx="623.5" cy="5.5" r="223.5" fill="#1AA4B7"/>
</g>
<path d="M521.5 140L522.061 141.727H523.878L522.408 142.795L522.969 144.523L521.5 143.455L520.031 144.523L520.592 142.795L519.122 141.727H520.939L521.5 140Z" fill="#FEFEFE"/>
<path d="M484.5 150L485.061 151.727H486.878L485.408 152.795L485.969 154.523L484.5 153.455L483.031 154.523L483.592 152.795L482.122 151.727H483.939L484.5 150Z" fill="#FEFEFE"/>
<path d="M442.5 126L443.061 127.727H444.878L443.408 128.795L443.969 130.523L442.5 129.455L441.031 130.523L441.592 128.795L440.122 127.727H441.939L442.5 126Z" fill="#FEFEFE"/>
<path d="M500.5 171L501.061 172.727H502.878L501.408 173.795L501.969 175.523L500.5 174.455L499.031 175.523L499.592 173.795L498.122 172.727H499.939L500.5 171Z" fill="#FEFEFE"/>
<path d="M516.5 192L517.061 193.727H518.878L517.408 194.795L517.969 196.523L516.5 195.455L515.031 196.523L515.592 194.795L514.122 193.727H515.939L516.5 192Z" fill="#FEFEFE"/>
<path d="M447.5 160L448.061 161.727H449.878L448.408 162.795L448.969 164.523L447.5 163.455L446.031 164.523L446.592 162.795L445.122 161.727H446.939L447.5 160Z" fill="#FEFEFE"/>
<path opacity="0.7" d="M428.5 179L429.061 180.727H430.878L429.408 181.795L429.969 183.523L428.5 182.455L427.031 183.523L427.592 181.795L426.122 180.727H427.939L428.5 179Z" fill="#FEFEFE"/>
<path opacity="0.7" d="M472.5 200L473.061 201.727H474.878L473.408 202.795L473.969 204.523L472.5 203.455L471.031 204.523L471.592 202.795L470.122 201.727H471.939L472.5 200Z" fill="#FEFEFE"/>
<path opacity="0.4" d="M411.5 143L412.061 144.727H413.878L412.408 145.795L412.969 147.523L411.5 146.455L410.031 147.523L410.592 145.795L409.122 144.727H410.939L411.5 143Z" fill="#FEFEFE"/>
<path opacity="0.4" d="M376.5 153L377.061 154.727H378.878L377.408 155.795L377.969 157.523L376.5 156.455L375.031 157.523L375.592 155.795L374.122 154.727H375.939L376.5 153Z" fill="#FEFEFE"/>
<path opacity="0.4" d="M349.5 135L350.061 136.727H351.878L350.408 137.795L350.969 139.523L349.5 138.455L348.031 139.523L348.592 137.795L347.122 136.727H348.939L349.5 135Z" fill="#FEFEFE"/>
<path opacity="0.4" d="M397.5 125L398.061 126.727H399.878L398.408 127.795L398.969 129.523L397.5 128.455L396.031 129.523L396.592 127.795L395.122 126.727H396.939L397.5 125Z" fill="#FEFEFE"/>
<path d="M557.5 143L558.061 144.727H559.878L558.408 145.795L558.969 147.523L557.5 146.455L556.031 147.523L556.592 145.795L555.122 144.727H556.939L557.5 143Z" fill="#FEFEFE"/>
<path d="M598.5 161L599.061 162.727H600.878L599.408 163.795L599.969 165.523L598.5 164.455L597.031 165.523L597.592 163.795L596.122 162.727H597.939L598.5 161Z" fill="#FEFEFE"/>
<path d="M637.5 148L638.061 149.727H639.878L638.408 150.795L638.969 152.523L637.5 151.455L636.031 152.523L636.592 150.795L635.122 149.727H636.939L637.5 148Z" fill="#FEFEFE"/>
<path d="M647.5 176L648.061 177.727H649.878L648.408 178.795L648.969 180.523L647.5 179.455L646.031 180.523L646.592 178.795L645.122 177.727H646.939L647.5 176Z" fill="#FEFEFE"/>
<path opacity="0.6" d="M603.5 209L604.061 210.727H605.878L604.408 211.795L604.969 213.523L603.5 212.455L602.031 213.523L602.592 211.795L601.122 210.727H602.939L603.5 209Z" fill="#FEFEFE"/>
<path d="M552.5 192L553.061 193.727H554.878L553.408 194.795L553.969 196.523L552.5 195.455L551.031 196.523L551.592 194.795L550.122 193.727H551.939L552.5 192Z" fill="#FEFEFE"/>
<path opacity="0.6" d="M603.5 229L604.061 230.727H605.878L604.408 231.795L604.969 233.523L603.5 232.455L602.031 233.523L602.592 231.795L601.122 230.727H602.939L603.5 229Z" fill="#FEFEFE"/>
<path opacity="0.6" d="M569.5 234L570.061 235.727H571.878L570.408 236.795L570.969 238.523L569.5 237.455L568.031 238.523L568.592 236.795L567.122 235.727H568.939L569.5 234Z" fill="#FEFEFE"/>
<path opacity="0.6" d="M620.5 234L621.061 235.727H622.878L621.408 236.795L621.969 238.523L620.5 237.455L619.031 238.523L619.592 236.795L618.122 235.727H619.939L620.5 234Z" fill="#FEFEFE"/>
<path opacity="0.6" d="M657.5 204L658.061 205.727H659.878L658.408 206.795L658.969 208.523L657.5 207.455L656.031 208.523L656.592 206.795L655.122 205.727H656.939L657.5 204Z" fill="#FEFEFE"/>
<path opacity="0.6" d="M663.5 229L664.061 230.727H665.878L664.408 231.795L664.969 233.523L663.5 232.455L662.031 233.523L662.592 231.795L661.122 230.727H662.939L663.5 229Z" fill="#FEFEFE"/>
<path opacity="0.6" d="M694.5 209L695.061 210.727H696.878L695.408 211.795L695.969 213.523L694.5 212.455L693.031 213.523L693.592 211.795L692.122 210.727H693.939L694.5 209Z" fill="#FEFEFE"/>
<path opacity="0.6" d="M735.5 214L736.061 215.727H737.878L736.408 216.795L736.969 218.523L735.5 217.455L734.031 218.523L734.592 216.795L733.122 215.727H734.939L735.5 214Z" fill="#FEFEFE"/>
<path d="M663.5 123L664.061 124.727H665.878L664.408 125.795L664.969 127.523L663.5 126.455L662.031 127.523L662.592 125.795L661.122 124.727H662.939L663.5 123Z" fill="#FEFEFE"/>
<path d="M699.5 166L700.061 167.727H701.878L700.408 168.795L700.969 170.523L699.5 169.455L698.031 170.523L698.592 168.795L697.122 167.727H698.939L699.5 166Z" fill="#FEFEFE"/>
<path d="M743.5 181L744.061 182.727H745.878L744.408 183.795L744.969 185.523L743.5 184.455L742.031 185.523L742.592 183.795L741.122 182.727H742.939L743.5 181Z" fill="#FEFEFE"/>
<path d="M745.5 146L746.061 147.727H747.878L746.408 148.795L746.969 150.523L745.5 149.455L744.031 150.523L744.592 148.795L743.122 147.727H744.939L745.5 146Z" fill="#FEFEFE"/>
<path d="M794.5 158L795.061 159.727H796.878L795.408 160.795L795.969 162.523L794.5 161.455L793.031 162.523L793.592 160.795L792.122 159.727H793.939L794.5 158Z" fill="#FEFEFE"/>
<path d="M819.5 140L820.061 141.727H821.878L820.408 142.795L820.969 144.523L819.5 143.455L818.031 144.523L818.592 142.795L817.122 141.727H818.939L819.5 140Z" fill="#FEFEFE"/>
<path d="M789.5 128L790.061 129.727H791.878L790.408 130.795L790.969 132.523L789.5 131.455L788.031 132.523L788.592 130.795L787.122 129.727H788.939L789.5 128Z" fill="#FEFEFE"/>
<path opacity="0.5" d="M923.5 120L924.061 121.727H925.878L924.408 122.795L924.969 124.523L923.5 123.455L922.031 124.523L922.592 122.795L921.122 121.727H922.939L923.5 120Z" fill="#FEFEFE"/>
<path opacity="0.5" d="M863.5 156L864.061 157.727H865.878L864.408 158.795L864.969 160.523L863.5 159.455L862.031 160.523L862.592 158.795L861.122 157.727H862.939L863.5 156Z" fill="#FEFEFE"/>
<path opacity="0.5" d="M949.5 151L950.061 152.727H951.878L950.408 153.795L950.969 155.523L949.5 154.455L948.031 155.523L948.592 153.795L947.122 152.727H948.939L949.5 151Z" fill="#FEFEFE"/>
<path opacity="0.5" d="M889.5 187L890.061 188.727H891.878L890.408 189.795L890.969 191.523L889.5 190.455L888.031 191.523L888.592 189.795L887.122 188.727H888.939L889.5 187Z" fill="#FEFEFE"/>
<path opacity="0.5" d="M909.5 167L910.061 168.727H911.878L910.408 169.795L910.969 171.523L909.5 170.455L908.031 171.523L908.592 169.795L907.122 168.727H908.939L909.5 167Z" fill="#FEFEFE"/>
<path opacity="0.5" d="M849.5 203L850.061 204.727H851.878L850.408 205.795L850.969 207.523L849.5 206.455L848.031 207.523L848.592 205.795L847.122 204.727H848.939L849.5 203Z" fill="#FEFEFE"/>
<path d="M562.5 125L563.061 126.727H564.878L563.408 127.795L563.969 129.523L562.5 128.455L561.031 129.523L561.592 127.795L560.122 126.727H561.939L562.5 125Z" fill="#FEFEFE"/>
<defs>
<filter id="filter0_f_159_364" x="0" y="-618" width="1247" height="1247" filterUnits="userSpaceOnUse" color-interpolation-filters="sRGB">
<feFlood flood-opacity="0" result="BackgroundImageFix"/>
<feBlend mode="normal" in="SourceGraphic" in2="BackgroundImageFix" result="shape"/>
<feGaussianBlur stdDeviation="200" result="effect1_foregroundBlur_159_364"/>
</filter>
</defs>
</svg>
