<svg width="38" height="38" viewBox="0 0 38 38" fill="none" xmlns="http://www.w3.org/2000/svg">
<path d="M15.8333 11.0834L15.0166 13.2906C13.9456 16.1849 13.4101 17.632 12.3544 18.6878C11.2987 19.7434 9.85156 20.2789 6.95725 21.35L4.75 22.1667L6.95725 22.9834C9.85156 24.0545 11.2987 24.59 12.3544 25.6456C13.4101 26.7014 13.9456 28.1485 15.0166 31.0427L15.8333 33.25L16.65 31.0427C17.7211 28.1485 18.2566 26.7014 19.3122 25.6456C20.368 24.59 21.8152 24.0545 24.7093 22.9834L26.9167 22.1667L24.7093 21.35C21.8152 20.2789 20.368 19.7434 19.3122 18.6878C18.2566 17.632 17.7211 16.1849 16.65 13.2906L15.8333 11.0834Z" stroke="#FEFEFE" stroke-width="2" stroke-linejoin="round"/>
<path d="M28.5 4.75L28.1499 5.69596C27.6909 6.93638 27.4615 7.5566 27.009 8.00902C26.5566 8.46146 25.9364 8.69096 24.696 9.14996L23.75 9.5L24.696 9.85004C25.9364 10.309 26.5566 10.5385 27.009 10.991C27.4615 11.4434 27.6909 12.0636 28.1499 13.304L28.5 14.25L28.8501 13.304C29.3091 12.0636 29.5385 11.4434 29.991 10.991C30.4434 10.5385 31.0636 10.309 32.304 9.85004L33.25 9.5L32.304 9.14996C31.0636 8.69096 30.4434 8.46146 29.991 8.00902C29.5385 7.5566 29.3091 6.93638 28.8501 5.69596L28.5 4.75Z" stroke="#FEFEFE" stroke-width="2" stroke-linejoin="round"/>
</svg>
