<svg width="33" height="32" viewBox="0 0 33 32" fill="none" xmlns="http://www.w3.org/2000/svg">
<g clip-path="url(#clip0_1_277)">
<path d="M23.72 19.1761C23.324 18.9774 21.376 18.0201 21.0133 17.8867C20.6493 17.7547 20.3853 17.6894 20.12 18.0867C19.8573 18.4827 19.0973 19.3747 18.8667 19.6387C18.636 19.9041 18.404 19.9361 18.008 19.7387C17.612 19.5387 16.3347 19.1214 14.8213 17.7721C13.644 16.7214 12.848 15.4241 12.6173 15.0267C12.3867 14.6307 12.5933 14.4161 12.7907 14.2187C12.9693 14.0414 13.188 13.7561 13.3853 13.5254C13.584 13.2934 13.6493 13.1281 13.7827 12.8627C13.9147 12.5987 13.8493 12.3681 13.7493 12.1694C13.6493 11.9707 12.8573 10.0201 12.528 9.22672C12.2053 8.45472 11.8787 8.56005 11.636 8.54672C11.4053 8.53605 11.1413 8.53339 10.876 8.53339C10.612 8.53339 10.1827 8.63205 9.82 9.02939C9.45733 9.42539 8.43333 10.3841 8.43333 12.3347C8.43333 14.2841 9.85333 16.1681 10.0507 16.4334C10.2493 16.6974 12.8453 20.7001 16.82 22.4161C17.7653 22.8241 18.5027 23.0681 19.0787 23.2494C20.028 23.5521 20.892 23.5094 21.5733 23.4067C22.3347 23.2934 23.9173 22.4481 24.248 21.5227C24.5787 20.5974 24.5787 19.8041 24.4787 19.6387C24.38 19.4734 24.1173 19.3747 23.72 19.1761ZM16.4907 29.0467H16.4853C14.125 29.0469 11.8081 28.4123 9.77733 27.2094L9.296 26.9241L4.308 28.2334L5.63867 23.3694L5.32533 22.8707C4.00592 20.7697 3.30792 18.3383 3.312 15.8574C3.31333 8.59072 9.22667 2.67872 16.496 2.67872C20.016 2.67872 23.3253 4.05205 25.8133 6.54272C27.0409 7.76488 28.0139 9.21836 28.676 10.819C29.3381 12.4197 29.6762 14.1358 29.6707 15.8681C29.6667 23.1347 23.7547 29.0467 16.4907 29.0467ZM27.708 4.65072C26.2389 3.17195 24.491 1.99944 22.5655 1.20112C20.6399 0.402806 18.5751 -0.005435 16.4907 5.46367e-05C7.75067 5.46367e-05 0.637333 7.11339 0.633333 15.8561C0.633333 18.6507 1.36267 21.3787 2.75067 23.7827L0.5 32.0001L8.90667 29.7947C11.2315 31.0613 13.8366 31.7251 16.484 31.7254H16.4907C25.2293 31.7254 32.344 24.6121 32.348 15.8681C32.3544 13.7844 31.9477 11.7202 31.1512 9.79477C30.3548 7.86934 29.1845 6.12095 27.708 4.65072Z" fill="#25D366"/>
</g>
<defs>
<clipPath id="clip0_1_277">
<rect width="32" height="32" fill="white" transform="translate(0.5)"/>
</clipPath>
</defs>
</svg>
