<svg width="38" height="38" viewBox="0 0 38 38" fill="none" xmlns="http://www.w3.org/2000/svg">
<path d="M6.68517 34.8251V29.2047C6.68517 27.1917 6.158 26.1452 5.12179 24.3956C3.87963 22.2985 3.16666 19.851 3.16666 17.2371C3.16666 9.46617 9.46783 3.16663 17.2407 3.16663C25.0136 3.16663 31.3148 9.46617 31.3148 17.2371C31.3148 18.1549 31.3148 18.6139 31.3532 18.8712C31.4447 19.4864 31.7317 20.0155 32.014 20.5632L34.8333 26.0311L32.6176 27.1386C31.9754 27.4595 31.6545 27.6201 31.4307 27.9163C31.207 28.2124 31.1442 28.5468 31.0181 29.2155L31.0058 29.2807C30.7173 30.8126 30.3989 32.5036 29.5021 33.5704C29.1854 33.9471 28.7934 34.2532 28.351 34.469C27.6208 34.8251 26.723 34.8251 24.9275 34.8251C24.0967 34.8251 23.2636 34.8442 22.433 34.8241C20.4641 34.7761 19 33.1208 19 31.1986" stroke="#FEFEFE" stroke-width="2" stroke-linecap="round" stroke-linejoin="round"/>
<path d="M22.781 16.6748C22.106 16.6748 21.4904 16.4194 21.0241 15.9992M22.781 16.6748C22.781 18.4892 21.7298 20.2125 19.7063 20.2125C17.6828 20.2125 16.6318 21.9356 16.6318 23.75M22.781 16.6748C26.184 16.6748 26.184 11.3686 22.781 11.3686C22.4718 11.3686 22.175 11.4222 21.8994 11.5207C22.0656 7.56542 16.3636 6.49162 15.0721 10.1969M15.0721 10.1969C16.0127 10.8317 16.6318 11.9117 16.6318 13.1373M15.0721 10.1969C12.1401 8.218 8.23147 11.769 10.0909 14.9352C6.97023 15.4031 7.30389 20.2125 10.4824 20.2125C11.3738 20.2125 12.1617 19.7669 12.6387 19.0851" stroke="#FEFEFE" stroke-width="2" stroke-linecap="round" stroke-linejoin="round"/>
</svg>
