<svg width="123" height="37" viewBox="0 0 123 37" fill="none" xmlns="http://www.w3.org/2000/svg">
<g clip-path="url(#clip0_159_369)">
<path d="M24.1784 13.5973C26.4729 15.2613 29.2837 16.2404 32.3194 16.2404V10.3136C31.7449 10.3137 31.1719 10.2529 30.6098 10.1321V14.7973C27.5742 14.7973 24.7638 13.8183 22.4688 12.1544V24.2493C22.4688 30.2998 17.6343 35.2044 11.671 35.2044C9.44599 35.2044 7.3779 34.5219 5.65994 33.3515C7.62071 35.3855 10.3551 36.6473 13.3803 36.6473C19.344 36.6473 24.1787 31.7428 24.1787 25.692V13.5973H24.1784ZM26.2875 7.61783C25.1149 6.31813 24.345 4.6385 24.1784 2.78161V2.01929H22.5583C22.9661 4.3794 24.3571 6.39575 26.2875 7.61783ZM9.43172 28.7085C8.77658 27.837 8.42255 26.7709 8.42414 25.6747C8.42414 22.9074 10.6354 20.6637 13.3635 20.6637C13.8719 20.6635 14.3773 20.7425 14.8618 20.8985V14.8392C14.2956 14.7605 13.7241 14.727 13.1529 14.7393V19.4556C12.668 19.2996 12.1624 19.2203 11.6538 19.2208C8.92573 19.2208 6.7146 21.4643 6.7146 24.232C6.7146 26.1889 7.81986 27.8831 9.43172 28.7085Z" fill="#FF004F"/>
<path d="M22.4688 12.1542C24.7638 13.8181 27.5742 14.7972 30.6098 14.7972V10.132C28.9154 9.76577 27.4153 8.8674 26.2875 7.61783C24.357 6.39562 22.9661 4.37928 22.5583 2.01929H18.3026V25.6918C18.293 28.4515 16.0855 30.6861 13.3633 30.6861C11.7591 30.6861 10.3339 29.9103 9.43135 28.7085C7.81962 27.8832 6.71435 26.1888 6.71435 24.2321C6.71435 21.4647 8.92549 19.221 11.6536 19.221C12.1763 19.221 12.6801 19.3035 13.1526 19.4557V14.7394C7.29412 14.8622 2.58245 19.7189 2.58245 25.6919C2.58245 28.6736 3.75576 31.3766 5.66006 33.3516C7.37802 34.5219 9.44611 35.2045 11.6711 35.2045C17.6345 35.2045 22.4689 30.2997 22.4689 24.2493V12.1542H22.4688Z" fill="white"/>
<path d="M30.6098 10.1319V8.8705C29.0819 8.87285 27.5839 8.43871 26.2875 7.61771C27.4351 8.89241 28.9462 9.77134 30.6098 10.1319ZM22.5583 2.01929C22.5194 1.79374 22.4895 1.5667 22.4688 1.3388V0.576477H16.5928V24.2492C16.5835 27.0085 14.3761 29.2431 11.6536 29.2431C10.8543 29.2431 10.0997 29.0506 9.43137 28.7086C10.334 29.9103 11.7591 30.6859 13.3633 30.6859C16.0853 30.6859 18.2931 28.4516 18.3026 25.6919V2.01929H22.5583ZM13.1529 14.7394V13.3965C12.6619 13.3284 12.1669 13.2942 11.6713 13.2945C5.7074 13.2944 0.872925 18.1992 0.872925 24.2492C0.872925 28.0422 2.77296 31.385 5.66021 33.3513C3.7559 31.3765 2.58259 28.6733 2.58259 25.6918C2.58259 19.7189 7.29414 14.8622 13.1529 14.7394Z" fill="#00F2EA"/>
<path d="M98.6949 30.2446C102.962 30.2446 106.421 26.7616 106.421 22.4654C106.421 18.1695 102.962 14.6858 98.6949 14.6858H97.5309C101.798 14.6858 105.257 18.1693 105.257 22.4654C105.257 26.7616 101.798 30.2446 97.5309 30.2446H98.6949Z" fill="#FF004F"/>
<path d="M97.4254 14.6858H96.2615C91.9946 14.6858 88.5347 18.1693 88.5347 22.4654C88.5347 26.7616 91.9946 30.2446 96.2615 30.2446H97.4254C93.1579 30.2446 89.6987 26.7616 89.6987 22.4654C89.6985 18.1695 93.1579 14.6858 97.4254 14.6858Z" fill="#00F2EA"/>
<path d="M38.686 11.1697V15.1129H43.2362V30.1381H47.7883V15.2193H51.4922L52.7623 11.1698L38.686 11.1697ZM75.9406 11.1697V15.1129H80.4908V30.1381H85.0428V15.2193H88.7467L90.0166 11.1698L75.9406 11.1697ZM53.6097 13.4074C53.6097 12.1718 54.6031 11.1697 55.8305 11.1697C57.0589 11.1697 58.0534 12.1718 58.0534 13.4074C58.0534 14.6431 57.0595 15.6452 55.8305 15.6452C54.6031 15.6446 53.6097 14.6431 53.6097 13.4074ZM53.6097 17.2441H58.0534V30.1381H53.6097V17.2441ZM59.9588 11.1697V30.138H64.4043V25.2365L65.7803 23.9566L70.119 30.2445H74.8813L68.6364 21.0801L74.2459 15.5381H68.8485L64.4043 20.0136V11.1697H59.9588ZM107.902 11.1697V30.138H112.348V25.2365L113.723 23.9566L118.063 30.2445H122.826L116.581 21.0801L122.191 15.5381H116.794L112.348 20.0136V11.1697H107.902Z" fill="white"/>
<path d="M97.5305 30.2446C101.797 30.2446 105.257 26.7616 105.257 22.4654C105.257 18.1695 101.797 14.6858 97.5305 14.6858H97.425C93.1579 14.6858 89.6987 18.1693 89.6987 22.4654C89.6987 26.7616 93.1579 30.2446 97.425 30.2446H97.5305ZM93.7204 22.4654C93.7204 20.3757 95.4034 18.6829 97.4787 18.6829C99.5525 18.6829 101.235 20.3757 101.235 22.4654C101.235 24.5552 99.5525 26.2489 97.4787 26.2489C95.4034 26.2486 93.7204 24.5552 93.7204 22.4654Z" fill="white"/>
</g>
<defs>
<clipPath id="clip0_159_369">
<rect width="121.953" height="36.0707" fill="white" transform="translate(0.872925 0.576477)"/>
</clipPath>
</defs>
</svg>
